<svg width="250" height="187" viewBox="0 0 250 187" fill="none" xmlns="http://www.w3.org/2000/svg">
<path d="M250 163.7H0V163.825H250V163.7Z" fill="#EBEBEB"/>
<path d="M224.95 171.745H208.39V171.87H224.95V171.745Z" fill="#EBEBEB"/>
<path d="M165.61 173.105H161.265V173.23H165.61V173.105Z" fill="#EBEBEB"/>
<path d="M207.89 167.105H184.055V167.23H207.89V167.105Z" fill="#EBEBEB"/>
<path d="M38.07 167.945H26.23V168.07H38.07V167.945Z" fill="#EBEBEB"/>
<path d="M55.445 167.945H42.52V168.07H55.445V167.945Z" fill="#EBEBEB"/>
<path d="M98.0551 170.055H65.7351V170.18H98.0551V170.055Z" fill="#EBEBEB"/>
<path d="M118.5 141.4H21.955C21.1987 141.399 20.4738 141.097 19.9394 140.562C19.4051 140.027 19.105 139.301 19.105 138.545V2.83012C19.1116 2.07813 19.4146 1.35911 19.9482 0.829231C20.4818 0.299351 21.203 0.00141026 21.955 0.00012207H118.5C119.257 0.00012207 119.983 0.300916 120.519 0.836332C121.054 1.37175 121.355 2.09793 121.355 2.85512V138.545C121.355 139.302 121.054 140.029 120.519 140.564C119.983 141.099 119.257 141.4 118.5 141.4ZM21.955 0.100122C21.2318 0.101447 20.5387 0.389655 20.0278 0.901485C19.5169 1.41332 19.23 2.10695 19.23 2.83012V138.545C19.23 139.268 19.5169 139.962 20.0278 140.474C20.5387 140.986 21.2318 141.274 21.955 141.275H118.5C119.224 141.274 119.917 140.986 120.429 140.474C120.941 139.962 121.229 139.269 121.23 138.545V2.83012C121.229 2.10649 120.941 1.41287 120.429 0.90118C119.917 0.389492 119.224 0.101444 118.5 0.100122H21.955Z" fill="#EBEBEB"/>
<path d="M226.655 141.4H130.105C129.348 141.399 128.623 141.098 128.088 140.562C127.553 140.027 127.251 139.302 127.25 138.545V2.83012C127.258 2.07768 127.562 1.35866 128.096 0.828918C128.631 0.299176 129.353 0.00139622 130.105 0.00012207H226.655C227.406 0.00272432 228.126 0.301247 228.659 0.830986C229.191 1.36073 229.493 2.079 229.5 2.83012V138.545C229.5 139.301 229.201 140.025 228.667 140.56C228.134 141.096 227.41 141.397 226.655 141.4ZM130.105 0.100122C129.381 0.101444 128.688 0.389492 128.176 0.90118C127.664 1.41287 127.376 2.10649 127.375 2.83012V138.545C127.376 139.269 127.664 139.962 128.176 140.474C128.688 140.986 129.381 141.274 130.105 141.275H226.655C227.379 141.274 228.072 140.986 228.584 140.474C229.096 139.962 229.384 139.269 229.385 138.545V2.83012C229.384 2.10649 229.096 1.41287 228.584 0.90118C228.072 0.389492 227.379 0.101444 226.655 0.100122H130.105Z" fill="#EBEBEB"/>
<path d="M220.705 13.0001H141.72V163.7H220.705V13.0001Z" fill="#EBEBEB"/>
<path d="M214.83 17.9152H147.595V163.7H214.83V17.9152Z" fill="#F5F5F5"/>
<path d="M190.67 30.0051H171.765V35.2301H190.67V30.0051Z" fill="white"/>
<path d="M199.185 81.9102H209.44C209.864 81.9102 210.271 82.0787 210.571 82.3788C210.871 82.6788 211.04 83.0858 211.04 83.5102C211.04 83.9345 210.871 84.3415 210.571 84.6415C210.271 84.9416 209.864 85.1102 209.44 85.1102H199.185C198.761 85.1102 198.354 84.9416 198.054 84.6415C197.754 84.3415 197.585 83.9345 197.585 83.5102C197.585 83.0858 197.754 82.6788 198.054 82.3788C198.354 82.0787 198.761 81.9102 199.185 81.9102Z" fill="white"/>
<path d="M87.72 29.0352H35.1899V71.3702H87.72V29.0352Z" fill="#EBEBEB"/>
<path d="M84.895 68.5501V31.8551L38.005 31.8551V68.5501H84.895Z" fill="#FAFAFA"/>
<path d="M79.4299 50.6852V48.9302H43.4749V50.6852H79.4299Z" fill="#E0E0E0"/>
<path d="M79.4299 54.68V52.925H43.4749V54.68H79.4299Z" fill="#E0E0E0"/>
<path d="M79.4299 58.6702V56.9152H43.4749V58.6702H79.4299Z" fill="#E0E0E0"/>
<path d="M70.415 62.6652V60.9102H52.49V62.6652H70.415Z" fill="#E0E0E0"/>
<path d="M43.4999 31.8552C43.4999 32.5758 43.3574 33.2893 43.0806 33.9546C42.8038 34.62 42.3981 35.224 41.8869 35.7319C41.3757 36.2399 40.7691 36.6417 40.102 36.9142C39.435 37.1868 38.7205 37.3248 37.9999 37.3202C37.0057 37.3226 36.0299 37.051 35.1799 36.5352V29.0352H42.6799C43.2054 29.8827 43.489 30.8579 43.4999 31.8552Z" fill="#EBEBEB"/>
<path d="M87.7199 29.0352V36.5352C86.6746 37.1639 85.449 37.4249 84.2383 37.2765C83.0275 37.1281 81.9012 36.579 81.0387 35.7164C80.1761 34.8539 79.6269 33.7276 79.4786 32.5168C79.3302 31.306 79.5912 30.0804 80.2199 29.0352H87.7199Z" fill="#EBEBEB"/>
<path d="M43.5 68.5551C43.5017 69.547 43.232 70.5205 42.72 71.3701H35.22V63.8701C36.0495 63.3734 36.9959 63.1054 37.9627 63.0936C38.9295 63.0817 39.8822 63.3262 40.7237 63.8024C41.5652 64.2785 42.2655 64.9692 42.7532 65.8041C43.2409 66.639 43.4985 67.5882 43.5 68.5551Z" fill="#EBEBEB"/>
<path d="M87.7201 63.865V71.365H80.2201C79.7042 70.5169 79.4325 69.5428 79.4351 68.55C79.4361 67.5819 79.6939 66.6313 80.1821 65.7952C80.6703 64.9591 81.3715 64.2674 82.2142 63.7907C83.0568 63.3139 84.0109 63.0692 84.979 63.0814C85.9471 63.0936 86.8947 63.3622 87.7251 63.86L87.7201 63.865Z" fill="#EBEBEB"/>
<path d="M66.0493 41.5417C66.4613 39.0041 64.738 36.613 62.2003 36.201C59.6627 35.7891 57.2715 37.5124 56.8596 40.05C56.4477 42.5877 58.171 44.9788 60.7086 45.3907C63.2463 45.8027 65.6374 44.0794 66.0493 41.5417Z" fill="#E0E0E0"/>
<path d="M130.17 103.575H26.23V107.315H130.17V103.575Z" fill="#EBEBEB"/>
<path d="M129.27 107.315H95.5V163.7H129.27V107.315Z" fill="#F5F5F5"/>
<path d="M61.2849 107.315H27.5149V163.7H61.2849V107.315Z" fill="#F5F5F5"/>
<path d="M28.6699 107.315H27.5149V163.7H28.6699V107.315Z" fill="#EBEBEB"/>
<path d="M96.655 107.315H95.5V163.7H96.655V107.315Z" fill="#EBEBEB"/>
<path d="M45.25 94.5601H39.04L39.54 103.575H44.75L45.25 94.5601Z" fill="#F0F0F0"/>
<path d="M99.165 99.665H66.72V103.575H99.165V99.665Z" fill="#F0F0F0"/>
<path d="M99.17 100.125H84.21V103.12H99.17V100.125Z" fill="#FAFAFA"/>
<path d="M125 186.28C178.541 186.28 221.945 183.746 221.945 180.62C221.945 177.494 178.541 174.96 125 174.96C71.4587 174.96 28.0549 177.494 28.0549 180.62C28.0549 183.746 71.4587 186.28 125 186.28Z" fill="#F5F5F5"/>
<path d="M170.355 145.61C179.103 145.61 186.195 138.518 186.195 129.77C186.195 121.022 179.103 113.93 170.355 113.93C161.607 113.93 154.515 121.022 154.515 129.77C154.515 138.518 161.607 145.61 170.355 145.61Z" fill="white"/>
<path d="M170.355 145.805C167.183 145.806 164.083 144.867 161.445 143.105C158.807 141.344 156.751 138.84 155.537 135.91C154.323 132.98 154.004 129.756 154.622 126.645C155.241 123.534 156.767 120.676 159.01 118.433C161.252 116.19 164.109 114.663 167.22 114.044C170.33 113.424 173.555 113.742 176.485 114.955C179.415 116.169 181.92 118.224 183.682 120.861C185.444 123.498 186.385 126.598 186.385 129.77C186.381 134.021 184.691 138.096 181.686 141.102C178.681 144.109 174.606 145.8 170.355 145.805ZM170.355 114.13C167.26 114.13 164.235 115.048 161.663 116.767C159.09 118.486 157.084 120.93 155.9 123.789C154.716 126.648 154.407 129.794 155.011 132.829C155.615 135.864 157.106 138.652 159.294 140.84C161.483 143.027 164.271 144.517 167.306 145.12C170.341 145.723 173.487 145.413 176.345 144.228C179.204 143.043 181.647 141.037 183.366 138.463C185.084 135.89 186.001 132.865 186 129.77C185.996 125.622 184.346 121.646 181.413 118.714C178.48 115.781 174.503 114.133 170.355 114.13Z" fill="#2F9973"/>
<path d="M172.905 120.79H167.805V138.75H172.905V120.79Z" fill="#2F9973"/>
<path d="M179.335 132.325V127.225H161.375V132.325H179.335Z" fill="#2F9973"/>
<path d="M63.0548 10.0351L62.7148 9.67012C65.0294 7.48213 67.9663 6.06696 71.1198 5.62012L71.1898 6.12012C68.138 6.55052 65.2953 7.91859 63.0548 10.0351Z" fill="#2F9973"/>
<path d="M59.3549 15.5001L58.8899 15.3201C59.3946 14.0464 60.0672 12.8458 60.8899 11.7501L61.2899 12.0501C60.4966 13.1104 59.846 14.2703 59.3549 15.5001Z" fill="#2F9973"/>
<path d="M73.305 34.6552C80.8823 34.6552 87.025 28.5126 87.025 20.9352C87.025 13.3579 80.8823 7.21521 73.305 7.21521C65.7276 7.21521 59.585 13.3579 59.585 20.9352C59.585 28.5126 65.7276 34.6552 73.305 34.6552Z" fill="#2F9973"/>
<path d="M81.4998 14.755C80.9714 14.2064 80.3389 13.7687 79.6394 13.4675C78.9398 13.1662 78.1872 13.0075 77.4256 13.0005C76.6639 12.9935 75.9085 13.1384 75.2036 13.4268C74.4986 13.7152 73.8582 14.1412 73.3198 14.68C72.7819 14.1414 72.1419 13.7154 71.4373 13.4271C70.7328 13.1388 69.9778 12.9939 69.2166 13.0009C68.4553 13.0079 67.7032 13.1666 67.004 13.4678C66.3049 13.769 65.6728 14.2066 65.1448 14.755C64.1101 15.8742 63.5527 17.3529 63.591 18.8766C63.6292 20.4004 64.2602 21.8491 65.3498 22.915L71.8498 29.415C72.0448 29.61 72.2763 29.7647 72.5311 29.8703C72.7859 29.9758 73.059 30.0302 73.3348 30.0302C73.6106 30.0302 73.8837 29.9758 74.1385 29.8703C74.3933 29.7647 74.6248 29.61 74.8198 29.415L81.3198 22.915C82.406 21.8458 83.0324 20.3953 83.066 18.8715C83.0996 17.3478 82.5378 15.871 81.4998 14.755Z" fill="white"/>
<path d="M73.3048 26.9301C73.204 26.9266 73.1066 26.8928 73.0254 26.833C72.9442 26.7732 72.883 26.6903 72.8498 26.5951L69.9548 18.1301L68.7448 21.6701C68.7104 21.7685 68.6461 21.8536 68.561 21.9137C68.4758 21.9738 68.374 22.0057 68.2698 22.0051H63.4248C63.2922 22.0051 63.165 21.9524 63.0713 21.8586C62.9775 21.7649 62.9248 21.6377 62.9248 21.5051C62.9248 21.3725 62.9775 21.2453 63.0713 21.1515C63.165 21.0578 63.2922 21.0051 63.4248 21.0051H67.9248L69.4948 16.4201C69.5288 16.3218 69.5926 16.2366 69.6773 16.1763C69.762 16.116 69.8633 16.0836 69.9673 16.0836C70.0713 16.0836 70.1726 16.116 70.2573 16.1763C70.342 16.2366 70.4058 16.3218 70.4398 16.4201L73.3848 25.0351L76.2448 18.3001C76.281 18.2142 76.3404 18.1402 76.4163 18.0863C76.4923 18.0324 76.5818 18.0008 76.6748 17.9951C76.7684 17.9897 76.8617 18.0108 76.9439 18.0559C77.0261 18.1009 77.094 18.1683 77.1398 18.2501L78.6498 21.0001H83.2048C83.3374 21.0001 83.4646 21.0528 83.5584 21.1465C83.6521 21.2403 83.7048 21.3675 83.7048 21.5001C83.7048 21.6327 83.6521 21.7599 83.5584 21.8536C83.4646 21.9474 83.3374 22.0001 83.2048 22.0001H78.3598C78.2704 22.0008 78.1824 21.9776 78.105 21.9327C78.0276 21.8878 77.9636 21.8231 77.9198 21.7451L76.7348 19.6251L73.7648 26.6251C73.7265 26.7155 73.6625 26.7926 73.5807 26.8468C73.4989 26.901 73.403 26.93 73.3048 26.9301Z" fill="#2F9973"/>
<path d="M149.43 163.1H97.245C96.3946 163.109 95.5516 162.942 94.7696 162.608C93.9875 162.274 93.2835 161.781 92.7023 161.16C92.121 160.54 91.6753 159.805 91.3934 159.002C91.1116 158.2 90.9997 157.348 91.0649 156.5L99.4999 31.5C99.6473 29.7149 100.453 28.0482 101.761 26.8239C103.068 25.5995 104.784 24.9049 106.575 24.875H158.77C159.623 24.8653 160.468 25.0335 161.252 25.369C162.036 25.7044 162.741 26.1997 163.322 26.8232C163.904 27.4467 164.349 28.1847 164.629 28.99C164.91 29.7953 165.019 30.6502 164.95 31.5L156.5 156.5C156.348 158.28 155.541 159.941 154.235 161.16C152.929 162.379 151.216 163.071 149.43 163.1Z" fill="#263238"/>
<path d="M161 75.7801H159.685C159.447 75.783 159.211 75.7361 158.992 75.6425C158.773 75.5488 158.576 75.4105 158.414 75.2364C158.251 75.0622 158.127 74.856 158.049 74.6311C157.971 74.4062 157.941 74.1674 157.96 73.9301L159.575 50.0351C159.613 49.5353 159.836 49.0679 160.202 48.7253C160.568 48.3827 161.049 48.1899 161.55 48.1851H162.865C163.103 48.1822 163.339 48.229 163.558 48.3227C163.777 48.4163 163.974 48.5546 164.137 48.7288C164.299 48.9029 164.423 49.1091 164.501 49.334C164.579 49.559 164.61 49.7978 164.59 50.0351L162.975 73.9301C162.938 74.4298 162.714 74.8972 162.348 75.2398C161.982 75.5824 161.501 75.7752 161 75.7801Z" fill="#263238"/>
<path d="M98.7401 59.84H97.4301C97.2362 59.8426 97.044 59.8049 96.8655 59.7292C96.687 59.6536 96.5261 59.5418 96.3931 59.4008C96.2601 59.2598 96.1578 59.0927 96.0927 58.9101C96.0276 58.7275 96.0012 58.5333 96.0151 58.34L96.6001 49.71C96.637 49.3048 96.8223 48.9276 97.1204 48.6508C97.4184 48.3739 97.8083 48.2169 98.2151 48.21H99.5301C99.7233 48.2089 99.9146 48.2476 100.092 48.3238C100.27 48.3999 100.43 48.5119 100.562 48.6527C100.694 48.7934 100.796 48.96 100.861 49.1419C100.926 49.3238 100.953 49.5172 100.94 49.71L100.355 58.34C100.319 58.7455 100.134 59.1234 99.8359 59.4005C99.5376 59.6775 99.1472 59.8341 98.7401 59.84Z" fill="#2F9973"/>
<path d="M97.7 75.25H96.385C96.1916 75.2519 95.9999 75.2137 95.822 75.1378C95.6441 75.0618 95.4838 74.9499 95.3514 74.809C95.2189 74.668 95.117 74.5012 95.0523 74.3189C94.9875 74.1367 94.9612 73.9429 94.975 73.75L95.56 65.12C95.5969 64.7149 95.7822 64.3377 96.0803 64.0608C96.3784 63.7839 96.7683 63.627 97.175 63.62H98.5C98.6932 63.6189 98.8846 63.6576 99.0621 63.7338C99.2397 63.8099 99.3996 63.9219 99.532 64.0627C99.6643 64.2035 99.7662 64.37 99.8312 64.5519C99.8963 64.7339 99.9231 64.9273 99.91 65.12L99.325 73.75C99.289 74.1573 99.1026 74.5365 98.8022 74.8138C98.5018 75.0911 98.1088 75.2466 97.7 75.25Z" fill="#2F9973"/>
<path d="M148.325 163.1H96.14C95.2896 163.109 94.4467 162.942 93.6646 162.608C92.8825 162.274 92.1785 161.781 91.5973 161.16C91.0161 160.539 90.5703 159.805 90.2885 159.002C90.0066 158.2 89.8947 157.348 89.96 156.5L98.4 31.4999C98.5525 29.7141 99.3638 28.0488 100.676 26.828C101.988 25.6073 103.708 24.9182 105.5 24.8949H157.665C158.516 24.8854 159.359 25.0531 160.142 25.3874C160.924 25.7216 161.628 26.2151 162.21 26.8364C162.791 27.4577 163.237 28.1931 163.518 28.996C163.8 29.7989 163.911 30.6516 163.845 31.4999L155.4 156.5C155.248 158.281 154.44 159.942 153.133 161.162C151.826 162.381 150.112 163.072 148.325 163.1Z" fill="#2F9973"/>
<path opacity="0.3" d="M90.51 155.1L98.75 33.1201H163.28L155.04 155.1H90.51Z" fill="white"/>
<path opacity="0.1" d="M115.985 155.1L139.015 33.1201H153.47L130.44 155.1H115.985Z" fill="white"/>
<path opacity="0.1" d="M105.065 155.1L128.095 33.1201H135.42L112.39 155.1H105.065Z" fill="white"/>
<path d="M125.07 27.9601H137.655C137.76 27.9583 137.864 27.9786 137.961 28.0196C138.058 28.0607 138.145 28.1216 138.216 28.1985C138.288 28.2753 138.343 28.3663 138.377 28.4657C138.411 28.565 138.424 28.6704 138.415 28.7751C138.398 28.9954 138.299 29.2013 138.138 29.3529C137.977 29.5045 137.766 29.5908 137.545 29.5951H124.96C124.855 29.5962 124.75 29.5752 124.654 29.5336C124.557 29.492 124.47 29.4306 124.399 29.3533C124.327 29.2761 124.272 29.1848 124.238 29.0852C124.204 28.9856 124.191 28.88 124.2 28.7751C124.217 28.5553 124.316 28.3499 124.477 28.1991C124.638 28.0484 124.85 27.9631 125.07 27.9601Z" fill="white"/>
<path d="M122.45 175.125L118.04 175.545L116.45 165.37L120.86 164.945L122.45 175.125Z" fill="#FFB573"/>
<path d="M117.535 173.39L122.155 171.955C122.235 171.927 122.322 171.932 122.398 171.967C122.475 172.003 122.535 172.066 122.565 172.145L124.065 175.81C124.102 175.908 124.119 176.013 124.113 176.118C124.108 176.223 124.081 176.326 124.034 176.42C123.987 176.514 123.921 176.597 123.84 176.664C123.76 176.731 123.666 176.781 123.565 176.81C121.895 177.31 120.305 177.425 118.29 178.31C115.935 179.31 114.95 180.65 112.415 180.65C110.6 180.65 110.19 178.985 110.96 178.755C114.46 177.695 114 176.825 116.54 174.09C116.804 173.773 117.147 173.532 117.535 173.39Z" fill="#263238"/>
<path opacity="0.2" d="M116.45 165.37L117.27 170.62L121.685 170.195L120.865 164.945L116.45 165.37Z" fill="black"/>
<path d="M119.64 36.8C113.855 36.12 108.1 36.575 102.325 37.695C101.363 37.8818 100.485 38.3702 99.8188 39.0894C99.1526 39.8086 98.7328 40.7212 98.6201 41.695C97.9951 47.225 97.2801 59.62 100.07 78.11L123.71 76.11C123.755 72.755 121.37 57.47 123.34 41.61C123.421 41.0501 123.388 40.4798 123.245 39.9326C123.102 39.3855 122.85 38.8726 122.505 38.4242C122.16 37.9759 121.729 37.6012 121.237 37.3222C120.745 37.0432 120.202 36.8657 119.64 36.8Z" fill="white"/>
<path d="M105.875 41.54L106.72 43.23C106.759 43.3152 106.822 43.3877 106.901 43.4389C106.98 43.4902 107.071 43.5183 107.165 43.52L108.08 43.57C108.243 43.5771 108.404 43.5276 108.535 43.43L110.11 42.255L108.165 40.84L105.875 41.54Z" fill="#263238"/>
<path d="M108.11 43.085C107.777 42.9304 107.399 42.9003 107.045 43C106.3 45.625 105.485 53.16 105.4 56.5C107.66 63.085 108.4 63.75 108.4 63.75L109.545 55.825C109.545 55.825 108.26 47.72 108.11 43.085Z" fill="#263238"/>
<path d="M114.635 25.4001C114.095 28.6601 113.635 34.6151 115.975 36.7201C114.26 38.5201 112.015 40.6051 108.165 40.8401C104.315 41.0751 104.91 38.4101 105.885 36.9851C109.48 36.0251 109.305 33.3451 108.6 30.8401L114.635 25.4001Z" fill="#FFB573"/>
<path d="M116.955 36.4349C116.682 36.3173 116.4 36.2253 116.11 36.1599C116.039 36.1412 115.964 36.1462 115.896 36.1742C115.829 36.2022 115.772 36.2516 115.735 36.3149C115.365 36.9449 114.235 39.7599 108.165 40.8399C109.165 41.4299 110.49 43.2599 111.06 44.1399C112.88 43.1949 117.615 40.3699 117.165 36.7149C117.156 36.6546 117.132 36.5974 117.095 36.5485C117.059 36.4997 117.01 36.4607 116.955 36.4349Z" fill="#F5F5F5"/>
<path d="M105.92 37.1352C105.933 37.0783 105.931 37.0191 105.915 36.963C105.899 36.9069 105.87 36.8556 105.829 36.8139C105.788 36.7722 105.738 36.7413 105.682 36.724C105.626 36.7068 105.567 36.7037 105.51 36.7151C105.3 36.7559 105.093 36.8111 104.89 36.8801C104.843 36.8985 104.799 36.9238 104.76 36.9552C104.295 37.3852 101.76 41.0451 104.135 44.0051C104.635 43.2001 106.36 41.3751 108.165 40.8401C106.455 40.0701 105.615 38.6352 105.92 37.1352Z" fill="#F5F5F5"/>
<path opacity="0.2" d="M112.175 27.62L108.605 30.84C108.777 31.4216 108.898 32.0172 108.965 32.62C110.345 32.385 112.2 30.82 112.3 29.37C112.368 28.784 112.325 28.1905 112.175 27.62Z" fill="black"/>
<path d="M107.405 15.545C104.325 16.75 104.125 19.28 104.405 22.045C104.685 24.81 107.695 22.98 108.365 21.25C109.035 19.52 111.67 13.875 107.405 15.545Z" fill="#263238"/>
<path d="M117.23 21.0601C116.375 25.4151 116.09 28.0001 113.6 30.0051C109.845 33.0051 104.76 30.4151 104.31 25.9251C103.905 21.8801 105.37 15.4251 109.855 14.1651C110.833 13.8771 111.869 13.8493 112.862 14.0845C113.854 14.3196 114.767 14.8096 115.512 15.5059C116.257 16.2022 116.807 17.0809 117.108 18.0549C117.41 19.029 117.452 20.0649 117.23 21.0601Z" fill="#FFB573"/>
<path d="M117.05 24.665C113.385 24.86 114.16 22.78 114.825 21.585C115.49 20.39 114.135 18.415 115.02 17.39C113.44 18.02 111.775 17.5 109.66 16.03C108.02 14.885 105.965 19.46 103.965 17.165C102.075 15 103.83 11.735 108.37 11.21C112.91 10.685 113.735 13.895 116.715 13.61C119.695 13.325 118.66 15.78 118.075 16.28C120.575 16.445 121.94 18.835 117.05 24.665Z" fill="#263238"/>
<path d="M117.5 16.585C118.073 16.2705 118.552 15.8085 118.887 15.2467C119.222 14.685 119.401 14.044 119.405 13.39C120.395 15.125 120.29 17.095 117.5 16.585Z" fill="#263238"/>
<path d="M108 25.7101C108.398 25.7791 108.807 25.7668 109.2 25.674C109.594 25.5812 109.964 25.4098 110.29 25.1701C110.3 25.1608 110.308 25.1496 110.313 25.1371C110.318 25.1246 110.321 25.1112 110.321 25.0976C110.321 25.0841 110.318 25.0707 110.313 25.0582C110.308 25.0457 110.3 25.0345 110.29 25.0251C110.27 25.0065 110.244 24.9961 110.217 24.9961C110.19 24.9961 110.164 25.0065 110.145 25.0251C109.78 25.2836 109.361 25.4538 108.919 25.5224C108.477 25.5909 108.026 25.5559 107.6 25.4201C107.573 25.4134 107.544 25.4168 107.519 25.4296C107.494 25.4425 107.475 25.464 107.465 25.4901C107.457 25.5167 107.46 25.5452 107.473 25.5695C107.486 25.5939 107.509 25.612 107.535 25.6201C107.687 25.664 107.843 25.6941 108 25.7101Z" fill="#263238"/>
<path d="M118.115 25.9999C117.43 26.8822 116.427 27.4604 115.32 27.6099C113.865 27.7999 113.38 26.4449 113.99 25.1799C114.545 24.0399 115.99 22.5699 117.33 22.9649C118.67 23.3599 118.955 24.8999 118.115 25.9999Z" fill="#FFB573"/>
<path d="M116.67 120.685C116.845 107.63 118.515 76.5349 118.515 76.5349L100.085 78.0899C100.085 78.0899 103.75 110.135 105.96 123.455C108.26 137.3 115.315 169.735 115.315 169.735L122.815 169.095C122.815 169.095 120.075 130.78 116.67 120.685Z" fill="#263238"/>
<path d="M114.865 169.94L123.76 169.185L123.41 166.315L114.14 166.935L114.865 169.94Z" fill="#2F9973"/>
<path d="M110.66 21.3199C110.615 21.6749 110.385 21.9449 110.16 21.9199C109.935 21.8949 109.78 21.5849 109.83 21.2249C109.88 20.8649 110.105 20.5999 110.33 20.6249C110.555 20.6499 110.71 20.9649 110.66 21.3199Z" fill="#263238"/>
<path d="M106.58 21C106.535 21.36 106.305 21.625 106.08 21.6C105.855 21.575 105.7 21.265 105.75 20.91C105.8 20.555 106.025 20.285 106.25 20.31C106.475 20.335 106.63 20.625 106.58 21Z" fill="#263238"/>
<path d="M107.73 21.42C107.128 22.3453 106.405 23.1861 105.58 23.92C106.11 24.475 107.205 24.325 107.205 24.325L107.73 21.42Z" fill="#ED893E"/>
<path opacity="0.4" d="M104 21.0901C103.925 21.6601 104.5 22.1351 105.295 22.2351C106.09 22.3351 106.825 21.9001 106.895 21.3301" fill="#2F9973"/>
<path opacity="0.4" d="M108.725 21.62C108.615 22.185 109.17 22.695 109.95 22.845C110.73 22.995 111.495 22.595 111.6 22.035" fill="#2F9973"/>
<path d="M110.26 23C110.17 23.005 110.08 23.005 109.99 23C109.606 22.9541 109.245 22.7918 108.955 22.535C108.829 22.427 108.73 22.2903 108.667 22.1363C108.605 21.9823 108.58 21.8156 108.595 21.65C108.341 21.5395 108.071 21.472 107.795 21.45C107.518 21.3808 107.227 21.3808 106.95 21.45C106.88 22.06 106.12 22.48 105.27 22.375C104.886 22.333 104.524 22.1722 104.235 21.915C104.109 21.8065 104.011 21.6697 103.948 21.5159C103.886 21.362 103.861 21.1955 103.875 21.03L104.115 21.06C104.105 21.1879 104.125 21.3163 104.175 21.4346C104.225 21.5529 104.302 21.6576 104.4 21.74C104.652 21.9617 104.966 22.0997 105.3 22.135C106.02 22.23 106.66 21.895 106.725 21.395C106.76 21.115 107.34 21.135 107.82 21.195C108.3 21.255 108.87 21.39 108.82 21.665C108.809 21.7929 108.83 21.9215 108.879 22.0398C108.929 22.1582 109.006 22.2629 109.105 22.345C109.36 22.5638 109.673 22.703 110.007 22.7457C110.34 22.7883 110.678 22.7325 110.98 22.585C111.096 22.5308 111.198 22.4494 111.276 22.3475C111.355 22.2457 111.407 22.1265 111.43 22V21.88L117.6 22.675L117.57 22.915L111.63 22.15C111.587 22.2892 111.516 22.4182 111.421 22.529C111.327 22.6399 111.211 22.7304 111.08 22.795C110.827 22.9288 110.546 22.9991 110.26 23Z" fill="#263238"/>
<path d="M112.23 19.7501C112.266 19.7502 112.3 19.7398 112.33 19.7201C112.379 19.6919 112.414 19.6457 112.429 19.5915C112.444 19.5373 112.437 19.4793 112.41 19.4301C112.255 19.1393 112.031 18.8913 111.757 18.7081C111.483 18.5249 111.168 18.4123 110.84 18.3801C110.784 18.3774 110.729 18.3968 110.687 18.4342C110.645 18.4716 110.619 18.524 110.615 18.5801C110.612 18.635 110.631 18.6888 110.668 18.73C110.704 18.7711 110.755 18.7963 110.81 18.8001C111.07 18.8306 111.318 18.9239 111.533 19.0721C111.748 19.2202 111.924 19.4186 112.045 19.6501C112.064 19.682 112.091 19.7081 112.124 19.7257C112.156 19.7433 112.193 19.7517 112.23 19.7501Z" fill="#263238"/>
<path d="M105.26 19.1851C105.295 19.1885 105.33 19.1835 105.362 19.1704C105.394 19.1574 105.423 19.1367 105.445 19.1101C105.607 18.8984 105.816 18.7275 106.055 18.6112C106.295 18.4948 106.559 18.4362 106.825 18.4401C106.853 18.4429 106.88 18.4402 106.907 18.4321C106.934 18.424 106.958 18.4108 106.98 18.3931C107.001 18.3754 107.019 18.3537 107.032 18.3292C107.045 18.3046 107.052 18.2778 107.055 18.2501C107.058 18.2232 107.057 18.1958 107.049 18.1696C107.042 18.1434 107.03 18.1189 107.013 18.0975C106.996 18.0761 106.976 18.0582 106.952 18.0449C106.928 18.0317 106.902 18.0232 106.875 18.0201C106.539 18.0114 106.206 18.0814 105.902 18.2247C105.598 18.3679 105.332 18.5805 105.125 18.8451C105.089 18.8877 105.072 18.9425 105.077 18.9978C105.081 19.0531 105.108 19.1042 105.15 19.1401C105.183 19.1636 105.22 19.179 105.26 19.1851Z" fill="#263238"/>
<path d="M132.025 118.58C128.2 98.9201 127.34 83.5451 123.71 76.0801L105.855 78.0801C105.855 78.0801 116.49 107.375 121.685 119.88C127.08 132.88 137.73 155.09 137.73 155.09H146.65C146.65 155.09 138.325 127.535 132.025 118.58Z" fill="#263238"/>
<path d="M75.4301 44.1551L73.5001 42.9351C73.1868 42.7333 72.8132 42.6464 72.443 42.6893C72.0728 42.7321 71.7289 42.9021 71.4701 43.1701L70.1601 44.5501C70.019 44.6991 69.9099 44.8754 69.8397 45.0681C69.7694 45.2609 69.7395 45.466 69.7517 45.6708C69.7639 45.8756 69.8179 46.0757 69.9105 46.2588C70.0031 46.4418 70.1323 46.604 70.2901 46.7351L71.2251 47.5351C72.0383 48.2243 72.9871 48.7353 74.0101 49.0351L76.8351 49.8701L78.6901 47.8701C79.2551 45.7851 75.4301 44.1551 75.4301 44.1551Z" fill="#FFB573"/>
<path d="M104 43.22C103.3 44.93 102.615 46.52 101.87 48.145C101.125 49.77 100.37 51.375 99.535 52.97C98.7 54.565 97.81 56.15 96.8 57.74C96.3 58.53 95.745 59.32 95.115 60.115C94.4377 60.9916 93.6665 61.7913 92.815 62.5C92.2528 62.9594 91.6325 63.3428 90.97 63.64C90.76 63.72 90.565 63.8 90.335 63.87L89.985 63.965C89.8089 64.0082 89.6302 64.0399 89.45 64.06C88.8405 64.1286 88.2236 64.0846 87.63 63.93C86.8879 63.7222 86.1828 63.4 85.54 62.975C85.0586 62.6746 84.5991 62.3404 84.165 61.975C82.722 60.7151 81.392 59.3315 80.19 57.84C79.025 56.44 77.925 55.035 76.87 53.6C75.815 52.165 74.8 50.755 73.76 49.25L79.29 45.68C81.0351 48.497 82.9661 51.1947 85.07 53.755C86.0372 54.9409 87.1026 56.0431 88.255 57.05C88.4782 57.2326 88.7138 57.3997 88.96 57.55C89.145 57.675 89.33 57.725 89.2 57.68C89.0242 57.6316 88.8401 57.6214 88.66 57.65C88.5873 57.6567 88.5153 57.6701 88.445 57.69H88.405C88.38 57.69 88.38 57.69 88.375 57.69C88.4887 57.6157 88.5973 57.5338 88.7 57.445C89.1564 57.0307 89.5701 56.5717 89.935 56.075C90.36 55.505 90.785 54.865 91.19 54.2C92.0178 52.8173 92.7722 51.392 93.45 49.93C94.15 48.43 94.825 46.93 95.45 45.37C96.075 43.81 96.67 42.225 97.175 40.71L104 43.22Z" fill="#2F9973"/>
<g opacity="0.6">
<path d="M104 43.22C103.3 44.93 102.615 46.52 101.87 48.145C101.125 49.77 100.37 51.375 99.535 52.97C98.7 54.565 97.81 56.15 96.8 57.74C96.3 58.53 95.745 59.32 95.115 60.115C94.4377 60.9916 93.6665 61.7913 92.815 62.5C92.2528 62.9594 91.6325 63.3428 90.97 63.64C90.76 63.72 90.565 63.8 90.335 63.87L89.985 63.965C89.8089 64.0082 89.6302 64.0399 89.45 64.06C88.8405 64.1286 88.2236 64.0846 87.63 63.93C86.8879 63.7222 86.1828 63.4 85.54 62.975C85.0586 62.6746 84.5991 62.3404 84.165 61.975C82.722 60.7151 81.392 59.3315 80.19 57.84C79.025 56.44 77.925 55.035 76.87 53.6C75.815 52.165 74.8 50.755 73.76 49.25L79.29 45.68C81.0351 48.497 82.9661 51.1947 85.07 53.755C86.0372 54.9409 87.1026 56.0431 88.255 57.05C88.4782 57.2326 88.7138 57.3997 88.96 57.55C89.145 57.675 89.33 57.725 89.2 57.68C89.0242 57.6316 88.8401 57.6214 88.66 57.65C88.5873 57.6567 88.5153 57.6701 88.445 57.69H88.405C88.38 57.69 88.38 57.69 88.375 57.69C88.4887 57.6157 88.5973 57.5338 88.7 57.445C89.1564 57.0307 89.5701 56.5717 89.935 56.075C90.36 55.505 90.785 54.865 91.19 54.2C92.0178 52.8173 92.7722 51.392 93.45 49.93C94.15 48.43 94.825 46.93 95.45 45.37C96.075 43.81 96.67 42.225 97.175 40.71L104 43.22Z" fill="white"/>
</g>
<path d="M117.09 35.5451C115.215 39.0451 108.54 52.3801 107.73 60.6101C104.775 53.1101 105.42 36.5201 105.42 36.5201C103.314 36.7254 101.248 37.2305 99.285 38.0201C98.6524 38.28 98.104 38.7101 97.7007 39.2625C97.2974 39.815 97.0549 40.4683 97 41.1501C96.4245 49.7342 96.6958 58.3541 97.81 66.8851C99.885 83.0351 101.81 108.15 101.81 108.15C101.81 108.15 118.335 107.46 131.085 104.77C129.53 92.4251 124.21 71.7351 124.16 66.1951C124.1 59.0651 124.265 45.1251 124.49 39.3051C124.528 38.4834 124.27 37.6753 123.764 37.027C123.258 36.3786 122.536 35.9328 121.73 35.7701C120.201 35.4866 118.64 35.411 117.09 35.5451Z" fill="#2F9973"/>
<path opacity="0.7" d="M117.09 35.545C115.215 39.045 108.54 52.38 107.73 60.61C104.775 53.11 105.42 36.52 105.42 36.52C103.314 36.7253 101.248 37.2304 99.285 38.02C98.6524 38.28 98.104 38.71 97.7007 39.2625C97.2974 39.8149 97.0549 40.4682 97 41.15C96.4245 49.7342 96.6958 58.3541 97.81 66.885C99.885 83.035 101.81 108.15 101.81 108.15C101.81 108.15 118.335 107.46 131.085 104.77C129.53 92.425 124.21 71.735 124.16 66.195C124.1 59.065 124.265 45.12 124.49 39.3C124.537 38.5033 124.302 37.7155 123.825 37.0753C123.349 36.435 122.662 35.9835 121.885 35.8C120.307 35.4907 118.692 35.4048 117.09 35.545Z" fill="white"/>
<path d="M113.195 105.47C110.325 89.6351 108.05 66.4001 107.865 63.6051H108.12C108.305 66.4001 110.585 89.6051 113.45 105.44L113.195 105.47Z" fill="white"/>
<path d="M111.765 77.3001H96.525C96.2172 77.2862 95.9223 77.173 95.6843 76.9774C95.4463 76.7818 95.2782 76.5143 95.205 76.2151L90.11 52.5301C90.0727 52.4008 90.0666 52.2645 90.0922 52.1324C90.1179 52.0003 90.1746 51.8762 90.2575 51.7703C90.3405 51.6643 90.4475 51.5796 90.5696 51.5231C90.6917 51.4666 90.8255 51.4398 90.96 51.4451H106.195C106.504 51.4579 106.8 51.5707 107.039 51.7664C107.278 51.9621 107.447 52.2301 107.52 52.5301L112.615 76.2151C112.652 76.3444 112.658 76.4807 112.633 76.6128C112.607 76.7449 112.55 76.869 112.467 76.975C112.384 77.0809 112.277 77.1656 112.155 77.2221C112.033 77.2787 111.899 77.3054 111.765 77.3001Z" fill="white"/>
<path d="M111.29 77.5H95.7901C95.4767 77.4854 95.1765 77.3699 94.9341 77.1708C94.6917 76.9716 94.5202 76.6995 94.445 76.3949L89.2601 52.3099C89.2229 52.178 89.2175 52.0391 89.2443 51.9046C89.271 51.7701 89.3292 51.6439 89.414 51.5362C89.4988 51.4284 89.6079 51.3423 89.7323 51.2847C89.8568 51.2272 89.993 51.1998 90.13 51.205H105.63C105.943 51.2195 106.244 51.335 106.486 51.5341C106.728 51.7333 106.9 52.0054 106.975 52.3099L112.155 76.3949C112.193 76.5266 112.199 76.6654 112.173 76.7999C112.147 76.9345 112.09 77.0609 112.005 77.1688C111.921 77.2767 111.812 77.363 111.688 77.4206C111.563 77.4782 111.427 77.5054 111.29 77.5Z" fill="#2F9973"/>
<path d="M113.065 63.9099L109.21 63.7649C108.747 63.7489 108.285 63.8307 107.855 64.0049L105.855 64.8049C105.667 64.8792 105.497 64.9906 105.353 65.1325C105.21 65.2743 105.096 65.4437 105.02 65.6305C104.943 65.8172 104.905 66.0174 104.908 66.2192C104.91 66.4211 104.954 66.6202 105.035 66.8049L105.835 68.5349C105.996 68.8704 106.269 69.1401 106.606 69.2986C106.942 69.457 107.324 69.4946 107.685 69.4049L109.89 68.8549C109.89 68.8549 114.03 68.5249 114.18 66.3549L113.065 63.9099Z" fill="#FFB573"/>
<path d="M123.71 37.6899C124.665 39.1899 125.54 40.5599 126.4 42.0299C127.26 43.4999 128.105 44.9549 128.9 46.4749C129.695 47.9949 130.45 49.5649 131.135 51.2449C131.491 52.1247 131.795 53.0246 132.045 53.9399C132.367 55.0555 132.516 56.2141 132.485 57.3749V57.5699C132.487 57.6032 132.487 57.6366 132.485 57.6699C132.485 57.8499 132.435 58.0299 132.4 58.2099C132.365 58.3899 132.32 58.5299 132.27 58.7099C132.22 58.8899 132.165 58.9849 132.11 59.1249C131.919 59.5576 131.674 59.9641 131.38 60.3349C130.971 60.8454 130.507 61.3083 129.995 61.7149C129.209 62.3344 128.372 62.8879 127.495 63.3699C125.951 64.2139 124.362 64.9717 122.735 65.6399C121.16 66.3099 119.59 66.9199 118.01 67.4949C116.43 68.0699 114.875 68.6249 113.23 69.1749L111.325 62.8749C112.825 62.4649 114.355 61.9599 115.85 61.4499C117.345 60.9399 118.85 60.3699 120.27 59.7749C121.663 59.1992 123.022 58.5431 124.34 57.8099C124.896 57.5017 125.426 57.1489 125.925 56.7549C126.056 56.6555 126.174 56.5396 126.275 56.4099C126.232 56.4584 126.198 56.5143 126.175 56.5749C126.175 56.6199 126.15 56.6499 126.125 56.7049C126.105 56.7637 126.09 56.8239 126.08 56.8849C126.059 56.9618 126.046 57.0405 126.04 57.1199C126.04 57.1499 126.04 57.1549 126.04 57.1449V57.1099C126.005 56.6355 125.913 56.1671 125.765 55.7149C125.565 55.0603 125.328 54.4176 125.055 53.7899C124.444 52.406 123.753 51.0587 122.985 49.7549C122.205 48.4149 121.375 47.0749 120.485 45.7549C119.595 44.4349 118.685 43.1199 117.77 41.9199L123.71 37.6899Z" fill="#2F9973"/>
<g opacity="0.7">
<path d="M123.71 37.6899C124.665 39.1899 125.54 40.5599 126.4 42.0299C127.26 43.4999 128.105 44.9549 128.9 46.4749C129.695 47.9949 130.45 49.5649 131.135 51.2449C131.491 52.1247 131.795 53.0246 132.045 53.9399C132.367 55.0555 132.516 56.2141 132.485 57.3749V57.5699C132.487 57.6032 132.487 57.6366 132.485 57.6699C132.485 57.8499 132.435 58.0299 132.4 58.2099C132.365 58.3899 132.32 58.5299 132.27 58.7099C132.22 58.8899 132.165 58.9849 132.11 59.1249C131.919 59.5576 131.674 59.9641 131.38 60.3349C130.971 60.8454 130.507 61.3083 129.995 61.7149C129.209 62.3344 128.372 62.8879 127.495 63.3699C125.951 64.2139 124.362 64.9717 122.735 65.6399C121.16 66.3099 119.59 66.9199 118.01 67.4949C116.43 68.0699 114.875 68.6249 113.23 69.1749L111.325 62.8749C112.825 62.4649 114.355 61.9599 115.85 61.4499C117.345 60.9399 118.85 60.3699 120.27 59.7749C121.663 59.1992 123.022 58.5431 124.34 57.8099C124.896 57.5017 125.426 57.1489 125.925 56.7549C126.056 56.6555 126.174 56.5396 126.275 56.4099C126.232 56.4584 126.198 56.5143 126.175 56.5749C126.175 56.6199 126.15 56.6499 126.125 56.7049C126.105 56.7637 126.09 56.8239 126.08 56.8849C126.059 56.9618 126.046 57.0405 126.04 57.1199C126.04 57.1499 126.04 57.1549 126.04 57.1449V57.1099C126.005 56.6355 125.913 56.1671 125.765 55.7149C125.565 55.0603 125.328 54.4176 125.055 53.7899C124.444 52.406 123.753 51.0587 122.985 49.7549C122.205 48.4149 121.375 47.0749 120.485 45.7549C119.595 44.4349 118.685 43.1199 117.77 41.9199L123.71 37.6899Z" fill="white"/>
</g>
<path d="M118.65 55.0402C118.617 55.0398 118.584 55.0308 118.555 55.0142C118.526 54.9975 118.502 54.9738 118.485 54.9452C118.47 54.9233 118.46 54.8988 118.455 54.873C118.45 54.8471 118.451 54.8206 118.456 54.7949C118.462 54.7692 118.473 54.7449 118.488 54.7235C118.503 54.702 118.523 54.6839 118.545 54.6702L119.325 54.1702C120.053 53.711 120.625 53.0416 120.964 52.2506C121.303 51.4595 121.394 50.5841 121.225 49.7402L119.655 41.7902C119.54 41.1957 119.228 40.6575 118.769 40.2624C118.31 39.8673 117.732 39.6386 117.127 39.6131C116.522 39.5877 115.926 39.767 115.436 40.1222C114.946 40.4773 114.589 40.9875 114.425 41.5702L112.2 49.3652C111.957 50.1892 111.97 51.0676 112.238 51.8838C112.506 52.7 113.016 53.4155 113.7 53.9352L114.44 54.4952C114.482 54.5277 114.509 54.5755 114.515 54.6279C114.522 54.6804 114.507 54.7334 114.475 54.7752C114.459 54.7956 114.44 54.8128 114.417 54.8256C114.395 54.8385 114.37 54.8468 114.345 54.85C114.319 54.8533 114.293 54.8515 114.268 54.8446C114.244 54.8378 114.22 54.8261 114.2 54.8102L113.5 54.2552C112.748 53.689 112.186 52.9075 111.889 52.0145C111.591 51.1215 111.573 50.1591 111.835 49.2552L114.065 41.4602C114.256 40.7946 114.666 40.2126 115.228 39.8076C115.79 39.4026 116.471 39.1981 117.163 39.2269C117.855 39.2558 118.518 39.5162 119.044 39.9666C119.57 40.4169 119.93 41.0309 120.065 41.7102L121.635 49.6652C121.82 50.5872 121.721 51.5437 121.351 52.4081C120.98 53.2724 120.356 54.0037 119.56 54.5052L118.775 55.0052C118.758 55.0192 118.738 55.0295 118.716 55.0355C118.695 55.0415 118.672 55.0431 118.65 55.0402Z" fill="#263238"/>
<path d="M119.85 41.9552L114.235 41.7202C114.209 41.7189 114.183 41.7125 114.159 41.7012C114.135 41.69 114.114 41.6741 114.096 41.6546C114.079 41.6351 114.065 41.6123 114.056 41.5875C114.047 41.5627 114.044 41.5365 114.045 41.5102C114.05 41.458 114.074 41.4096 114.113 41.3745C114.152 41.3393 114.203 41.32 114.255 41.3202L119.865 41.5552C119.891 41.5565 119.917 41.5629 119.941 41.5742C119.965 41.5854 119.986 41.6013 120.004 41.6208C120.021 41.6403 120.035 41.6631 120.044 41.6879C120.052 41.7126 120.056 41.7389 120.055 41.7652C120.054 41.7912 120.048 41.8169 120.038 41.8406C120.027 41.8644 120.012 41.8858 119.993 41.9035C119.973 41.9212 119.951 41.9349 119.926 41.9438C119.902 41.9526 119.876 41.9565 119.85 41.9552Z" fill="#263238"/>
<path d="M117.12 39.625C117.068 39.6238 117.019 39.603 116.982 39.5669C116.944 39.5307 116.922 39.4818 116.92 39.43C116.92 38.43 116.61 36.695 115.675 36.315C115.649 36.3063 115.625 36.2924 115.605 36.2742C115.585 36.256 115.568 36.2337 115.557 36.2089C115.545 36.1841 115.539 36.1573 115.539 36.13C115.538 36.1027 115.543 36.0756 115.553 36.0503C115.563 36.025 115.579 36.0021 115.598 35.9829C115.618 35.9638 115.641 35.9488 115.666 35.9389C115.692 35.9291 115.719 35.9245 115.746 35.9256C115.774 35.9266 115.8 35.9332 115.825 35.945C117.21 36.515 117.325 39.125 117.325 39.445C117.325 39.4977 117.305 39.5484 117.268 39.5866C117.232 39.6247 117.183 39.6474 117.13 39.65L117.12 39.625Z" fill="#263238"/>
<path d="M99.945 46.4199H99.905C99.8534 46.4091 99.8082 46.3783 99.7791 46.3343C99.7501 46.2903 99.7396 46.2366 99.75 46.1849C100.41 42.8999 103.14 37.7149 105.545 36.1849C105.567 36.1713 105.591 36.1621 105.617 36.158C105.642 36.1539 105.668 36.1549 105.694 36.1609C105.719 36.167 105.742 36.178 105.763 36.1932C105.784 36.2085 105.802 36.2278 105.815 36.2499C105.83 36.2713 105.84 36.2955 105.844 36.321C105.849 36.3464 105.849 36.3726 105.843 36.3979C105.838 36.4232 105.827 36.447 105.812 36.468C105.797 36.489 105.777 36.5067 105.755 36.5199C103.43 37.9899 100.78 43.0199 100.14 46.2549C100.132 46.3008 100.108 46.3425 100.072 46.3726C100.037 46.4027 99.9916 46.4195 99.945 46.4199Z" fill="#263238"/>
<path d="M101.585 46.9351C101.275 47.7301 100.585 48.2101 100.085 48.0051C99.5851 47.8001 99.3901 47.0051 99.7001 46.1901C100.01 45.3751 100.7 44.9151 101.2 45.1251C101.7 45.3351 101.9 46.1401 101.585 46.9351Z" fill="white"/>
<path d="M114.785 54.68C114.785 55.05 114.555 55.345 114.31 55.335C114.065 55.325 113.875 55.015 113.89 54.64C113.905 54.265 114.12 53.97 114.365 53.985C114.61 54 114.8 54.305 114.785 54.68Z" fill="white"/>
<path d="M119.095 54.86C119.095 55.23 118.87 55.525 118.62 55.515C118.37 55.505 118.19 55.195 118.205 54.82C118.22 54.445 118.43 54.155 118.705 54.165C118.98 54.175 119.11 54.5 119.095 54.86Z" fill="white"/>
<path d="M203.885 47.9251L203.385 47.8951C203.468 46.8306 203.329 45.7604 202.977 44.7525C202.624 43.7445 202.066 42.8208 201.338 42.0399C200.61 41.259 199.727 40.638 198.746 40.2163C197.766 39.7946 196.708 39.5814 195.64 39.5901V39.0901C196.776 39.0805 197.902 39.3071 198.946 39.7555C199.99 40.204 200.929 40.8645 201.705 41.6952C202.48 42.5259 203.074 43.5086 203.449 44.5811C203.825 45.6536 203.973 46.7923 203.885 47.9251Z" fill="#2F9973"/>
<path d="M204.149 50.0215L203.859 54.1615L204.359 54.1965L204.649 50.0565L204.149 50.0215Z" fill="#2F9973"/>
<path d="M195.64 40.8401H161.14C159.256 40.871 157.451 41.6017 156.075 42.89C154.7 44.1783 153.854 45.932 153.7 47.8101L153.385 52.4551C153.313 53.3488 153.429 54.2477 153.724 55.0944C154.019 55.9411 154.487 56.7171 155.099 57.3728C155.71 58.0286 156.451 58.5497 157.276 58.9031C158.1 59.2564 158.988 59.4342 159.885 59.4251H194.385L201.075 63.5501L202.135 47.8101C202.207 46.9165 202.092 46.0178 201.798 45.1711C201.504 44.3244 201.036 43.5483 200.425 42.8925C199.814 42.2367 199.072 41.7154 198.249 41.3621C197.425 41.0087 196.536 40.8309 195.64 40.8401Z" fill="#2F9973"/>
<path d="M193.89 47.4952H161.935V48.6552H193.89V47.4952Z" fill="white"/>
<path d="M193.61 51.6102H169.885V52.7702H193.61V51.6102Z" fill="white"/>
<path d="M143.74 65.6902H179C179.917 65.6803 180.825 65.8616 181.668 66.2226C182.511 66.5836 183.269 67.1163 183.894 67.7867C184.52 68.4572 184.998 69.2506 185.3 70.1164C185.601 70.9823 185.719 71.9014 185.645 72.8152L185.325 77.5652C185.166 79.4844 184.301 81.2763 182.895 82.593C181.49 83.9096 179.645 84.6571 177.72 84.6902H142.455L135.045 88.9152L136.135 72.8152C136.292 70.8956 137.158 69.103 138.563 67.7862C139.969 66.4693 141.814 65.7222 143.74 65.6902Z" fill="white"/>
<path opacity="0.15" d="M143.74 65.6902H179C179.917 65.6803 180.825 65.8616 181.668 66.2226C182.511 66.5836 183.269 67.1163 183.894 67.7867C184.52 68.4572 184.998 69.2506 185.3 70.1164C185.601 70.9823 185.719 71.9014 185.645 72.8152L185.325 77.5652C185.166 79.4844 184.301 81.2763 182.895 82.593C181.49 83.9096 179.645 84.6571 177.72 84.6902H142.455L135.045 88.9152L136.135 72.8152C136.292 70.8956 137.158 69.103 138.563 67.7862C139.969 66.4693 141.814 65.7222 143.74 65.6902Z" fill="#2F9973"/>
<path opacity="0.5" d="M177.21 72.4952H144.53V73.6852H177.21V72.4952Z" fill="#2F9973"/>
<path opacity="0.5" d="M157.16 76.7002H144.245V77.8902H157.16V76.7002Z" fill="#2F9973"/>
<path opacity="0.5" d="M168.575 76.7002H160.325V77.8902H168.575V76.7002Z" fill="#2F9973"/>
</svg>
